<svg width="32" height="32" viewBox="0 0 32 32" fill="none" xmlns="http://www.w3.org/2000/svg">
  <!-- Fond rond rose -->
  <circle cx="16" cy="16" r="16" fill="#FF1493"/>
  
  <!-- Peluche stylisée -->
  <g transform="translate(8, 6)">
    <!-- Corps de la peluche -->
    <ellipse cx="8" cy="12" rx="6" ry="8" fill="#FFE4E1" stroke="#FF69B4" stroke-width="0.5"/>
    
    <!-- Tête de la peluche -->
    <circle cx="8" cy="6" r="4" fill="#FFE4E1" stroke="#FF69B4" stroke-width="0.5"/>
    
    <!-- Oreilles -->
    <circle cx="5" cy="3" r="1.5" fill="#FFE4E1" stroke="#FF69B4" stroke-width="0.5"/>
    <circle cx="11" cy="3" r="1.5" fill="#FFE4E1" stroke="#FF69B4" stroke-width="0.5"/>
    
    <!-- Yeux -->
    <circle cx="6.5" cy="5.5" r="0.5" fill="#333"/>
    <circle cx="9.5" cy="5.5" r="0.5" fill="#333"/>
    
    <!-- Cœur brodé sur la poitrine -->
    <path d="M8 10 C7 9, 5 9, 5 10.5 C5 11.5, 6 12.5, 8 14 C10 12.5, 11 11.5, 11 10.5 C11 9, 9 9, 8 10 Z" fill="#FF1493"/>
    
    <!-- Petits bras -->
    <ellipse cx="3" cy="10" rx="1.5" ry="3" fill="#FFE4E1" stroke="#FF69B4" stroke-width="0.5" transform="rotate(-30 3 10)"/>
    <ellipse cx="13" cy="10" rx="1.5" ry="3" fill="#FFE4E1" stroke="#FF69B4" stroke-width="0.5" transform="rotate(30 13 10)"/>
  </g>
  
  <!-- Petit cœur décoratif -->
  <path d="M26 4 C25.5 3.5, 24.5 3.5, 24 4 C23.5 3.5, 22.5 3.5, 22 4 C22 5, 23 6, 24 7 C25 6, 26 5, 26 4 Z" fill="white" opacity="0.8"/>
</svg>
